# xmcd
#
# Track frame offsets:
#	150
#	22625
#	38323
#	60541
#	72749
#	82818
#	108052
#	127065
#	144594
#	157032
#	169020
#
# Disc length: 2440 seconds
#
# Revision: 0
# Processed by: cddbd v1.5.2PL0 Copyright (c) Steve Scherf et al.
# Submitted via: dBpowerAMP V4.0
#
DISCID=8309860b
DTITLE=Nelsen Adelard - Take Me Back
DYEAR=2004
DGENRE=Blues
TTITLE0=Take Me Back
TTITLE1=Sugar Pie
TTITLE2=Call On Me
TTITLE3=Big Mamou
TTITLE4=The Professor Is In
TTITLE5=Blues All Night
TTITLE6=Brickyard Blues
TTITLE7=Mama Can I Play My Horn
TTITLE8=Back At Jax
TTITLE9=St James Infirmary
TTITLE10=Blues Got A Hold On Me
EXTD=
EXTT0=
EXTT1=
EXTT2=
EXTT3=
EXTT4=
EXTT5=
EXTT6=
EXTT7=
EXTT8=
EXTT9=
EXTT10=
PLAYORDER=
